<?xml version="1.0" encoding="UTF-8"?>
<svg width="618px" height="137px" viewBox="0 0 618 137" version="1.1" xmlns="http://www.w3.org/2000/svg" xmlns:xlink="http://www.w3.org/1999/xlink">
    <title>编组</title>
    <defs>
        <polygon id="path-1" points="0 137 618 137 618 0 0 0"></polygon>
    </defs>
    <g id="页面-1" stroke="none" stroke-width="1" fill="none" fill-rule="evenodd">
        <g id="midbanner-1备份" transform="translate(-359.000000, -451.000000)">
            <g id="编组" transform="translate(359.000000, 451.000000)">
                <path d="M266.010005,68 C256.10752,68 247.373761,66.9519789 239.811264,64.8635126 L239.811264,54.4666377 C248.212911,56.7369293 256.977093,57.8708125 266.098737,57.8708125 C272.520395,57.8708125 276.99502,57.2748293 279.515007,56.0778124 C281.91584,54.9439293 283.117525,52.9716292 283.117525,50.1634376 C283.117525,47.9537545 282.275839,46.2188375 280.595002,44.9637375 C279.155009,43.8879375 276.543755,42.8727459 272.763774,41.9181628 L256.55625,38.5998501 C250.793743,37.2235331 246.59292,35.4330584 243.951243,33.2233753 C240.650414,30.4757921 239,26.531192 239,21.3921004 C239,15.2959002 241.220834,10.8740086 245.662502,8.12390009 C250.104169,5.37631693 257.397936,4 267.541265,4 C276.903753,4 284.945403,4.78033382 291.668749,6.3334254 L291.668749,16.462613 C284.286251,14.7883045 276.422065,13.9524129 268.081262,13.9524129 C261.41876,13.9524129 256.827516,14.5180918 254.307529,15.6519749 C252.023315,16.6722172 250.885011,18.4626919 250.885011,21.030975 C250.885011,23.2431835 251.785006,24.9755751 253.584997,26.2306751 C255.02499,27.1877836 257.605822,28.1448921 261.330029,29.0994752 L277.175019,32.2359626 C283.05668,33.6122795 287.376658,35.4936669 290.140024,37.88265 C293.380008,40.693367 295,44.6935248 295,49.893225 C295,56.2293335 292.687899,60.8279998 288.068767,63.6967999 C283.444565,66.5656 276.095025,68 266.010005,68" id="Fill-1" fill="#FFFFFF"></path>
                <path d="M342.084477,40.3721168 C342.20641,36.7281574 341.363042,34.0672079 339.559453,32.3917953 C337.633931,30.5976128 334.506864,29.6979945 330.178251,29.6979945 C325.96649,29.6979945 322.80894,30.5369644 320.705599,32.212377 C318.538753,33.9459111 317.245757,36.664982 316.826613,40.3721168 L342.084477,40.3721168 Z M332.975084,68 C323.29159,68 316.343963,66.0870477 312.134742,62.2586161 C308.044914,58.5514813 306,52.5725577 306,44.3193182 C306,36.5462122 308.10588,30.6860584 312.315101,26.7388569 C316.404929,22.9154793 322.328829,21 330.086801,21 C338.025132,21 343.949033,22.9154793 347.858502,26.7388569 C351.287861,30.0922093 353,34.6635841 353,40.4630894 C353,43.2124845 352.822181,45.6662186 352.458923,47.8167106 L316.826613,47.8167106 C317.187331,51.8852089 318.658145,54.783698 321.244136,56.5197591 C323.7717,58.2532932 328.011404,59.089736 333.965787,59.0290876 C339.076803,59.0290876 344.490109,58.1926448 350.203167,56.5197591 L350.203167,65.6675628 C346.235272,67.2216786 340.491731,68 332.975084,68 L332.975084,68 Z" id="Fill-3" fill="#FFFFFF"></path>
                <path d="M368,22.2477301 C368,20.7492434 368.686544,20 370.062155,20 C371.018773,20 372.154599,20.5695262 373.469632,21.7060474 L378.0407,25.1232048 C384.792554,21.7693281 392.112321,20.0632807 400,20 L400,30.6919056 C391.63275,30.8716227 384.671399,31.352556 379.115949,32.1271116 L379.115949,66 L368,66 L368,22.2477301 Z" id="Fill-5" fill="#FFFFFF"></path>
                <mask id="mask-2" fill="white">
                    <use xlink:href="#path-1"></use>
                </mask>
                <g id="Clip-8"></g>
                <path d="M410.144162,67 L421.737362,67 L421.737362,21.9132998 L410.144162,21.9132998 L410.144162,67 Z M408.917959,8.9286757 C407.726258,7.90738459 407.694409,6.79463456 408.825064,5.59296616 L414.199659,0.811697791 C415.391359,-0.27056593 416.553864,-0.27056593 417.68452,0.811697791 L423.05646,5.59296616 C424.314513,6.79463456 424.314513,7.90738459 423.05646,8.9286757 L417.68452,13.6184852 C416.553864,14.7007489 415.391359,14.7007489 414.199659,13.6184852 L408.917959,8.9286757 Z" id="Fill-7" fill="#FFFFFF" mask="url(#mask-2)"></path>
                <path d="M471.085067,40.3721168 C471.204453,36.7281574 470.363671,34.0672079 468.557639,32.3917953 C466.634762,30.5976128 463.507864,29.6979945 459.179484,29.6979945 C454.967951,29.6979945 451.810571,30.5369644 449.704805,32.212377 C447.540615,33.9459111 446.24769,36.664982 445.828568,40.3721168 L471.085067,40.3721168 Z M461.973626,68 C452.290656,68 445.345944,66.0870477 441.134411,62.2586161 C437.047344,58.5514813 435,52.5725577 435,44.3193182 C435,36.5462122 437.105767,30.6860584 441.3173,26.7388569 C445.404367,22.9154793 451.330487,21 459.08804,21 C467.025942,21 472.949522,22.9154793 476.85878,26.7388569 C480.287953,30.0922093 482,34.6635841 482,40.4630894 C482,43.2124845 481.819651,45.6662186 481.458953,47.8167106 L445.828568,47.8167106 C446.186726,51.8852089 447.660001,54.783698 450.245852,56.5197591 C452.77328,58.2532932 457.012755,59.089736 462.966816,59.0290876 C468.077555,59.0290876 473.490569,58.1926448 479.203318,56.5197591 L479.203318,65.6675628 C475.235637,67.2216786 469.492407,68 461.973626,68 L461.973626,68 Z" id="Fill-9" fill="#FFFFFF" mask="url(#mask-2)"></path>
                <path d="M513.83257,68 C505.886018,68 499.452141,67.130706 494.530939,65.3996989 L494.530939,56.2518953 C500.63924,58.222969 506.925356,59.2085058 513.386782,59.2085058 C517.418911,59.2085058 520.293995,58.7915479 522.014538,57.9525781 C523.557266,57.1767837 524.326125,55.9789774 524.326125,54.3642131 C524.326125,52.9313942 523.73508,51.8523577 522.547981,51.1372117 C521.481095,50.4776601 519.730499,49.9116082 517.301203,49.4340018 L507.69672,47.4604011 C503.07104,46.5026614 499.747664,45.1886123 497.734103,43.5157267 C495.244701,41.4208291 494,38.3707189 494,34.362869 C494,29.7005215 495.627879,26.324426 498.891149,24.2320555 C502.209517,22.0765095 507.60656,21 515.077271,21 C521.716511,21 527.321422,21.6267004 531.886995,22.8826281 L531.886995,32.0354858 C526.727872,30.5394914 521.185572,29.7914942 515.255085,29.7914942 C511.222955,29.7914942 508.405473,30.1478036 506.805143,30.8680037 C505.382628,31.5250282 504.67137,32.6318619 504.67137,34.1859777 C504.67137,35.5606753 505.234867,36.5765364 506.361859,37.2335609 C507.308533,37.7743427 509.146784,38.3429217 511.876611,38.9392978 L520.769837,40.6425077 C525.453118,41.6608957 528.86415,43.0052691 530.997923,44.6781547 C533.66514,46.7730523 535,49.8509597 535,53.919458 C535,58.7612237 533.312015,62.3192645 529.931037,64.5910533 C526.550058,66.8653691 521.185572,68 513.83257,68" id="Fill-10" fill="#FFFFFF" mask="url(#mask-2)"></path>
                <path d="M0,67 L24.1885642,36.0125799 L0.179492899,6 L13.5276972,6 L31.985129,29.1961973 C32.5817533,29.9660711 33.26686,30.3460089 34.0455052,30.3460089 C34.7609488,30.3460089 35.4182467,29.9660711 36.0173991,29.1961973 L54.4723028,6 L67.6410142,6 L43.8114358,35.9225947 L68,67 L54.6517957,67 L35.9263886,43.1839043 C35.4460555,42.3590395 34.7912856,41.916612 33.9570228,41.8566219 C33.3578705,41.8566219 32.7005725,42.2990493 31.985129,43.1839043 L13.3482043,67 L0,67 Z" id="Fill-11" fill="#FFFFFF" mask="url(#mask-2)"></path>
                <path d="M103.240511,34.924529 C110.154648,34.924529 116.6577,34.1763753 122.749669,32.6825955 C122.454976,25.6307413 120.84531,20.702026 117.918193,17.893922 C115.161949,15.2020852 110.565732,13.8574306 104.122113,13.8574306 C98.3198839,13.8574306 94.1050339,14.696576 91.4676572,16.3672841 C88.7708467,18.1037084 87.4236796,20.8814818 87.4236796,24.7056593 C87.4236796,28.4110422 88.7114128,31.0700209 91.2893557,32.6825955 C93.6914735,34.1763753 97.6760172,34.924529 103.240511,34.924529 M98.4090346,68 C91.2026814,68 85.2271039,67.4641602 80.4823022,66.3874255 L80.4823022,56.2570199 C85.9304043,57.3944157 91.7301567,57.9605861 97.8790829,57.9605861 C106.142863,57.9605861 112.059007,56.8560483 115.632467,54.6469729 C119.441185,52.3140476 121.724435,47.9818333 122.484693,41.6452747 C116.392724,43.381699 109.42163,44.2461198 101.573887,44.2461198 C93.0773238,44.2461198 86.7500961,42.7548675 82.5897272,39.7647802 C78.1990521,36.6584258 76,31.7575135 76,25.0645709 C76,18.2503061 78.312967,13.0536709 82.9438538,9.46708266 C87.6886555,5.81983334 94.7464241,4 104.122113,4 C114.488365,4 122.076086,6.47699538 126.880321,11.4385688 C131.625123,16.3369535 134,24.1369614 134,34.8335374 C134,46.7256427 130.981256,55.3041349 124.948721,60.5614312 C119.26536,65.5204771 110.417147,68 98.4090346,68" id="Fill-12" fill="#FFFFFF" mask="url(#mask-2)"></path>
                <path d="M176.00127,57.6926662 C183.451637,57.6926662 188.707283,55.9006358 191.773288,52.3140476 C194.595436,49.0282374 196.01032,43.5914853 196.01032,35.9987362 C196.01032,28.3529087 194.595436,22.885826 191.773288,19.5974883 C188.707283,16.0109 183.451637,14.2188697 176.00127,14.2188697 C168.609327,14.2188697 163.379083,16.0109 160.315618,19.5974883 C157.488391,22.9439596 156.078587,28.4110422 156.078587,35.9987362 C156.078587,43.5914853 157.488391,49.0282374 160.315618,52.3140476 C163.379083,55.9006358 168.609327,57.6926662 176.00127,57.6926662 M176.00127,68 C164.763485,68 156.561222,65.2828877 151.391943,59.8461356 C146.463981,54.6469729 144,46.6978397 144,35.9987362 C144,25.2440267 146.463981,17.2974211 151.391943,12.1538644 C156.561222,6.71963982 164.763485,4 176.00127,4 C187.236515,4 195.438778,6.71963982 200.608057,12.1538644 C205.533479,17.3555547 208,25.3046878 208,35.9987362 C208,46.6978397 205.533479,54.6469729 200.608057,59.8461356 C195.438778,65.2828877 187.236515,68 176.00127,68" id="Fill-13" fill="#FFFFFF" mask="url(#mask-2)"></path>
                <path d="M617.989898,137 C608.229027,132.600411 597.402415,130.146648 586,130.146648 C574.597585,130.146648 563.758346,132.600411 554,137 L554,73 L618,73 L617.989898,137 Z" id="Fill-14" fill="#141E8C" mask="url(#mask-2)"></path>
                <path d="M561.338271,92.4751542 C558.262162,92.4751542 558.008836,95.5346391 558.008836,95.5346391 L556.540575,95.5346391 L556.540575,91 L567.999728,91 C567.999728,91 568.095371,94.5063475 564.701312,98.2259703 C564.701312,98.2259703 561.47786,101.904969 561.392556,103.51469 L563.251146,103.51469 C565.91883,103.51469 566.192837,100.452666 566.192837,100.452666 L567.728306,100.452666 L567.728306,105 L556.013242,105 C556.013242,105 555.581553,101.554588 559.647704,97.3728691 C559.647704,97.3728691 562.147366,94.6307581 562.726398,92.4649982 L561.338271,92.4751542 Z" id="Fill-15" fill="#FFFFFF" mask="url(#mask-2)"></path>
                <path d="M590,105 L590,103.515883 L589.680735,103.515883 C589.10177,103.515883 588.625255,103.010165 588.625255,102.390089 L588.625255,93.6124524 C588.625255,92.9923761 589.10177,92.4866582 589.680735,92.4866582 L590,92.4866582 L590,91 L583,91 L583,92.4866582 L583.319265,92.4866582 C583.910143,92.4866582 584.384275,92.9923761 584.384275,93.6124524 L584.384275,102.390089 C584.384275,103.010165 583.910143,103.515883 583.319265,103.515883 L583,103.515883 L583,105 L590,105 Z" id="Fill-16" fill="#FFFFFF" mask="url(#mask-2)"></path>
                <path d="M582,105 L582,100.455139 L580.474968,100.455139 C580.474968,100.455139 580.192555,103.515498 577.543004,103.515498 L576.020539,103.515498 L576.020539,98.7447888 L576.562259,98.7447888 C577.198973,98.7447888 577.712452,99.2497734 577.712452,99.879101 L577.712452,100.444988 L579.214377,100.444988 L579.214377,95.5524742 L577.712452,95.5524742 L577.712452,96.1183614 C577.712452,96.747689 577.198973,97.2526736 576.562259,97.2526736 L576.020539,97.2526736 L576.020539,92.4819648 L577.543004,92.4819648 C580.192555,92.4819648 580.474968,95.5397861 580.474968,95.5397861 L582,95.5397861 L582,91 L570,91 L570,92.4921153 L570.344031,92.4921153 C570.970475,92.4921153 571.481386,92.9996375 571.481386,93.616277 L571.481386,102.383723 C571.481386,103.000363 570.970475,103.505347 570.344031,103.505347 L570,103.505347 L570,104.987312 L582,105 Z" id="Fill-17" fill="#FFFFFF" mask="url(#mask-2)"></path>
                <path d="M597.18558,92.4751542 C600.12426,92.4751542 600.353728,95.5346391 600.353728,95.5346391 L601.767551,95.5346391 L601.767551,91 L591.31069,91 C591.31069,91 589.657528,93.2266957 593.977954,98.2259703 C593.977954,98.2259703 597.044938,101.904969 597.126363,103.51469 L595.359701,103.51469 C592.815807,103.51469 592.544392,100.452666 592.544392,100.452666 L591.078754,100.452666 L591.078754,105 L601.617039,105 C601.617039,105 603.534213,102.874864 598.789394,97.3728691 C598.789394,97.3728691 596.304717,94.7450127 595.850714,92.4649982 L597.18558,92.4751542 Z" id="Fill-18" fill="#FFFFFF" mask="url(#mask-2)"></path>
                <path d="M610.185802,92.4751542 C613.114342,92.4751542 613.356126,95.5346391 613.356126,95.5346391 L614.759951,95.5346391 L614.759951,91 L604.311449,91 C604.311449,91 602.655973,93.2266957 606.978469,98.2259703 C606.978469,98.2259703 610.045172,101.904969 610.129056,103.51469 L608.362557,103.51469 C605.816428,103.51469 605.545039,100.452666 605.545039,100.452666 L604.079535,100.452666 L604.079535,105 L614.616854,105 C614.616854,105 616.533852,102.874864 611.791935,97.3728691 C611.791935,97.3728691 609.305019,94.7450127 608.853525,92.4649982 L610.185802,92.4751542 Z" id="Fill-19" fill="#FFFFFF" mask="url(#mask-2)"></path>
                <path d="M241,96.0291176 C241,88.5243702 244.996403,86 252.301978,86 C255.359662,86 257.510997,86.3671351 258.751003,86.6177997 L258.751003,89.8663122 C257.486098,89.5574123 255.113155,89.1953412 252.493706,89.1953412 C247.120349,89.1953412 244.695117,90.7930118 244.695117,96.001266 C244.695117,100.986707 247.120349,102.779339 252.550975,102.779339 C255.279983,102.779339 257.650436,102.414736 259,102.080517 L259,105.329029 C257.759994,105.66578 255.55388,106 252.247199,106 C244.941624,106 241,103.341436 241,96.0291176" id="Fill-20" fill="#FFFFFF" mask="url(#mask-2)"></path>
                <path d="M274.579141,98.5 C274.579141,95.2365424 273.13865,94.0072464 270.802454,94.0072464 L269.170552,94.0072464 C266.83681,94.0072464 265.425767,95.2365424 265.425767,98.5 C265.425767,101.763458 266.83681,102.992754 269.170552,102.992754 L270.802454,102.992754 C273.13865,102.992754 274.579141,101.763458 274.579141,98.5 M262,98.5 C262,93.5181159 264.770552,91 268.981595,91 L270.993865,91 C275.229448,91 278,93.5181159 278,98.5 C278,103.453416 275.229448,106 270.993865,106 L268.981595,106 C264.770552,106 262,103.453416 262,98.5" id="Fill-21" fill="#FFFFFF" mask="url(#mask-2)"></path>
                <polygon id="Fill-22" fill="#FFFFFF" mask="url(#mask-2)" points="281 99 291 99 291 96 281 96"></polygon>
                <path d="M301.717184,93.7764361 C299.009537,93.7764361 297.745448,94.7778161 297.454136,97.1816457 L305.517253,97.1816457 C305.605688,94.8942556 304.510664,93.7764361 301.717184,93.7764361 M294,98.4417802 C294,93.3753666 296.822091,91 301.688573,91 C307.041443,91 309,93.8048991 309,97.2101087 C309,98.2140762 308.916768,99.0420907 308.828334,99.5570122 L297.454136,99.5570122 C297.745448,102.193721 299.06936,103.135587 302.926652,103.135587 C305.199931,103.135587 307.129877,102.620666 308.110456,102.336036 L308.110456,105.257375 C307.158488,105.627393 305.142709,106 302.609329,106 C296.333102,106 294,103.622046 294,98.4417802" id="Fill-23" fill="#FFFFFF" mask="url(#mask-2)"></path>
                <path d="M313.663256,91 C314.006589,91 314.352523,91.1927966 314.75828,91.5190678 L316.168025,92.5028249 C317.723426,91.6822034 319.450494,91 322.041096,91 C326.101266,91 328,92.8019068 328,96.0300141 L328,105 L324.460031,105 L324.460031,96.8506356 C324.460031,94.8806497 323.565285,94.0081215 320.860239,94.0081215 C319.247616,94.0081215 317.608982,94.2800141 316.56858,94.6087571 L316.56858,105 L313,105 L313,91.6822034 C313,91.2471751 313.202878,91 313.663256,91" id="Fill-24" fill="#FFFFFF" mask="url(#mask-2)"></path>
                <path d="M343.478345,101.72153 L343.478345,94.7886598 C342.764706,94.453848 341.076277,93.9805802 339.186167,93.9805802 C336.411765,93.9805802 334.635423,95.0127068 334.635423,98.2399904 C334.635423,101.416926 336.266968,102.504435 339.103426,102.504435 C340.99095,102.504435 342.506141,102.169624 343.478345,101.72153 M332.659987,111.244785 L332.659987,108.294414 C333.919198,108.659434 336.096315,109.102493 338.387201,109.074802 C341.820944,109.074802 343.478345,108.128267 343.478345,105.648645 L343.478345,104.062695 C342.307046,104.815392 340.732385,105.482498 338.211377,105.482498 C333.947641,105.482498 331,103.450971 331,98.2399904 C331,92.950971 334.291532,91 338.557854,91 C341.076277,91 342.61991,91.7224886 343.964447,92.4751858 L345.254686,91.500959 C345.683904,91.1686646 345.970911,91 346.340659,91 C346.800905,91 347,91.2517382 347,91.6973148 L347,105.734236 C347,110.29825 343.509373,112 338.557854,112 C335.752424,112 333.80543,111.609806 332.659987,111.244785" id="Fill-25" fill="#FFFFFF" mask="url(#mask-2)"></path>
                <path d="M350.665682,105 L354.300744,105 L354.300744,91.5421698 L350.665682,91.5421698 L350.665682,105 Z M350.252,86.6685422 L351.936085,85.2427081 C352.291051,84.9190973 352.675375,84.9190973 353.030341,85.2427081 L354.711757,86.6685422 C355.096081,87.0189179 355.096081,87.3668603 354.711757,87.6637063 L353.030341,89.0652088 C352.675375,89.3863864 352.31774,89.3863864 351.936085,89.0652088 L350.281358,87.6637063 C349.926392,87.3668603 349.897034,87.0189179 350.252,86.6685422 L350.252,86.6685422 Z" id="Fill-26" fill="#FFFFFF" mask="url(#mask-2)"></path>
                <path d="M359.663256,91 C360.006589,91 360.352523,91.1927966 360.755679,91.5190678 L362.165424,92.5028249 C363.723426,91.6822034 365.450494,91 368.041096,91 C372.101266,91 374,92.8019068 374,96.0300141 L374,105 L370.460031,105 L370.460031,96.8506356 C370.460031,94.8806497 369.565285,94.0081215 366.860239,94.0081215 C365.247616,94.0081215 363.606381,94.2800141 362.56858,94.6087571 L362.56858,105 L359,105 L359,91.6822034 C359,91.2471751 359.200277,91 359.663256,91" id="Fill-27" fill="#FFFFFF" mask="url(#mask-2)"></path>
                <path d="M384.717184,93.7764361 C382.009537,93.7764361 380.745448,94.7778161 380.454136,97.1816457 L388.517253,97.1816457 C388.605688,94.8942556 387.510664,93.7764361 384.717184,93.7764361 M377,98.4417802 C377,93.3753666 379.822091,91 384.688573,91 C390.041443,91 392,93.8048991 392,97.2101087 C392,98.2140762 391.916768,99.0420907 391.828334,99.5570122 L380.454136,99.5570122 C380.745448,102.193721 382.06936,103.135587 385.926652,103.135587 C388.199931,103.135587 390.129877,102.620666 391.107855,102.336036 L391.107855,105.257375 C390.158488,105.627393 388.142709,106 385.609329,106 C379.333102,106 377,103.622046 377,98.4417802" id="Fill-28" fill="#FFFFFF" mask="url(#mask-2)"></path>
                <path d="M401.717184,93.7764361 C399.009537,93.7764361 397.745448,94.7778161 397.454136,97.1816457 L405.517253,97.1816457 C405.605688,94.8942556 404.510664,93.7764361 401.717184,93.7764361 M394,98.4417802 C394,93.3753666 396.822091,91 401.688573,91 C407.041443,91 409,93.8048991 409,97.2101087 C409,98.2140762 408.916768,99.0420907 408.828334,99.5570122 L397.454136,99.5570122 C397.745448,102.193721 399.066759,103.135587 402.926652,103.135587 C405.199931,103.135587 407.129877,102.620666 408.110456,102.336036 L408.110456,105.257375 C407.158488,105.627393 405.142709,106 402.609329,106 C396.333102,106 394,103.622046 394,98.4417802" id="Fill-29" fill="#FFFFFF" mask="url(#mask-2)"></path>
                <path d="M413.645243,91 C413.979251,91 414.315789,91.1927966 414.710526,91.5190678 L416.137652,92.5572034 C418.407389,91.4646893 420.340587,91.0271893 423,91 L423,94.2528249 C420.730263,94.3072034 418.34919,94.4480932 416.47166,94.6927966 L416.47166,105 L413,105 L413,91.6822034 C413,91.2471751 413.197368,91 413.645243,91" id="Fill-30" fill="#FFFFFF" mask="url(#mask-2)"></path>
                <path d="M431.717184,93.7764361 C429.012138,93.7764361 427.745448,94.7778161 427.456737,97.1816457 L435.517253,97.1816457 C435.605688,94.8942556 434.510664,93.7764361 431.717184,93.7764361 M424,98.4417802 C424,93.3753666 426.822091,91 431.688573,91 C437.041443,91 439,93.8048991 439,97.2101087 C439,98.2140762 438.916768,99.0420907 438.828334,99.5570122 L427.456737,99.5570122 C427.745448,102.193721 429.066759,103.135587 432.926652,103.135587 C435.199931,103.135587 437.129877,102.620666 438.110456,102.336036 L438.110456,105.257375 C437.158488,105.627393 435.142709,106 432.609329,106 C426.333102,106 424,103.622046 424,98.4417802" id="Fill-31" fill="#FFFFFF" mask="url(#mask-2)"></path>
                <path d="M454.478345,101.416129 L454.478345,94.5431843 C453.767292,94.1923499 452.076277,93.734316 450.186167,93.734316 C447.411765,93.734316 445.635423,94.6503837 445.635423,97.9370203 C445.635423,101.092094 447.266968,102.142161 450.103426,102.142161 C451.99095,102.142161 453.506141,101.766963 454.478345,101.416129 M442,97.9370203 C442,92.7622122 445.291532,90.876477 449.557854,90.876477 C451.78927,90.876477 453.247576,91.4173468 454.478345,92.0093799 L454.478345,85 L458,85 L458,104.675965 L454.964447,104.675965 L454.651584,103.516263 C453.420814,104.300767 451.820297,105 449.211377,105 C444.947641,105 442,103.002193 442,97.9370203" id="Fill-32" fill="#FFFFFF" mask="url(#mask-2)"></path>
                <path d="M474.275384,102.839689 L470,91 L473.621199,91 L477.242397,101.939972 L480.776028,93.2146893 C481.203566,92.0109463 481.916989,91.5190678 483.057949,91.5190678 C484.224666,91.5190678 484.938088,92.0677966 485.337296,93.2146893 L488.788509,101.910311 L492.438039,91 L496,91 L491.724616,102.839689 C491.181179,104.342514 490.439425,105 488.870926,105 C487.189104,105 486.478257,104.290607 485.909064,102.839689 L482.998712,95.4565678 L480.119267,102.839689 C479.521743,104.290607 478.810896,105 477.154829,105 C475.501337,105 474.79049,104.290607 474.275384,102.839689" id="Fill-33" fill="#FFFFFF" mask="url(#mask-2)"></path>
                <path d="M497.665682,105 L501.298075,105 L501.298075,91.5421698 L497.665682,91.5421698 L497.665682,105 Z M497.252,86.6685422 L498.936085,85.2427081 C499.291051,84.9190973 499.672706,84.9190973 500.030341,85.2427081 L501.711757,86.6685422 C502.096081,87.0189179 502.096081,87.3668603 501.711757,87.6637063 L500.030341,89.0652088 C499.672706,89.3863864 499.320409,89.3863864 498.936085,89.0652088 L497.281358,87.6637063 C496.926392,87.3668603 496.897034,87.0189179 497.252,86.6685422 L497.252,86.6685422 Z" id="Fill-34" fill="#FFFFFF" mask="url(#mask-2)"></path>
                <path d="M507.189938,100.296607 L507.189938,93.812749 L504,93.812749 L504,90.9936805 L507.189938,90.9936805 L507.189938,87 L510.825667,87 L510.825667,90.9936805 L516.853183,90.9936805 L516.853183,93.812749 L510.825667,93.812749 L510.825667,99.5572194 C510.825667,101.335211 511.591786,102.099327 514.194456,102.099327 C515.318275,102.099327 516.471458,101.854513 517,101.718505 L517,104.564775 C516.321971,104.755186 514.989938,105 513.455031,105 C509.141273,105 507.189938,103.496497 507.189938,100.296607" id="Fill-35" fill="#FFFFFF" mask="url(#mask-2)"></path>
                <path d="M523.570562,85 L523.570562,92.285785 C525.011269,91.5502724 526.680825,90.9732541 529.042129,90.9732541 C533.101595,90.9732541 535,92.7810797 535,96.0128777 L535,105 L531.460645,105 L531.460645,96.8350669 C531.460645,94.8613175 530.566054,93.9871223 527.858877,93.9871223 C526.249133,93.9871223 524.608183,94.2595344 523.570562,94.5889054 L523.570562,105 L520,105 L520,85 L523.570562,85 Z" id="Fill-36" fill="#FFFFFF" mask="url(#mask-2)"></path>
            </g>
        </g>
    </g>
</svg>