<?xml version="1.0" encoding="UTF-8"?>
<svg width="536px" height="70px" viewBox="0 0 536 70" version="1.1" xmlns="http://www.w3.org/2000/svg" xmlns:xlink="http://www.w3.org/1999/xlink">
    <title>编组 2</title>
    <g id="页面-1" stroke="none" stroke-width="1" fill="none" fill-rule="evenodd">
        <g id="in-pc" transform="translate(-1480.000000, -4497.000000)" fill="#FFFFFF">
            <g id="编组-2" transform="translate(1480.168000, 4497.608000)">
                <path d="M40.512,67.392 L40.512,12.096 L68.832,12.096 L68.832,1.152 L0,1.152 L0,12.096 L28.224,12.096 L28.224,67.392 L40.512,67.392 Z M136.416,67.392 L136.416,56.544 L90.816,56.544 L90.816,53.184 C90.816,50.048 91.648,47.712 93.312,46.176 C94.976,44.64 98.176,43.232 102.912,41.952 L102.912,41.952 L117.216,38.112 C124.32,36.192 129.312,34.08 132.192,31.776 C136.096,28.64 138.048,24.16 138.048,18.336 C138.048,11.872 135.744,7.2 131.136,4.32 C126.592,1.44 119.168,0 108.864,0 C99.264,0 89.824,0.96 80.544,2.88 L80.544,2.88 L80.544,13.92 C88.608,11.872 97.536,10.848 107.328,10.848 C114.176,10.848 118.88,11.456 121.44,12.672 C123.936,13.824 125.184,15.904 125.184,18.912 C125.184,21.536 124.064,23.584 121.824,25.056 C120.16,26.144 117.056,27.296 112.512,28.512 L112.512,28.512 L96.288,32.448 C87.584,34.816 82.272,38.24 80.352,42.72 C78.944,45.728 78.272,49.472 78.336,53.952 L78.336,53.952 L78.336,67.392 L136.416,67.392 Z M194.592,67.392 L194.592,44.544 L220.32,44.544 C227.488,44.544 233.216,42.688 237.504,38.976 C242.048,35.072 244.32,29.696 244.32,22.848 C244.32,16 242.08,10.624 237.6,6.72 C233.312,3.008 227.552,1.152 220.32,1.152 L220.32,1.152 L182.208,1.152 L182.208,67.392 L194.592,67.392 Z M219.456,33.696 L194.592,33.696 L194.592,12 L219.456,12 C227.456,12.064 231.488,15.68 231.552,22.848 C231.552,26.368 230.496,29.056 228.384,30.912 C226.272,32.768 223.296,33.696 219.456,33.696 L219.456,33.696 Z M267.264,67.392 L267.264,31.2 C273.216,30.368 280.672,29.856 289.632,29.664 L289.632,29.664 L289.632,18.24 C281.184,18.304 273.344,20.128 266.112,23.712 L266.112,23.712 L261.216,20.064 C259.808,18.848 258.592,18.24 257.568,18.24 C256.096,18.24 255.36,19.04 255.36,20.64 L255.36,20.64 L255.36,67.392 L267.264,67.392 Z M328.32,68.544 C336,68.544 342.016,66.432 346.368,62.208 C350.848,57.856 353.088,51.584 353.088,43.392 C353.088,35.2 350.848,28.928 346.368,24.576 C342.016,20.352 336,18.24 328.32,18.24 L328.32,18.24 L321.216,18.24 C313.6,18.24 307.616,20.352 303.264,24.576 C298.784,28.928 296.544,35.2 296.544,43.392 C296.544,51.584 298.784,57.856 303.264,62.208 C307.616,66.432 313.6,68.544 321.216,68.544 L321.216,68.544 L328.32,68.544 Z M327.648,58.464 L321.888,58.464 C317.6,58.464 314.368,57.312 312.192,55.008 C309.824,52.512 308.64,48.64 308.64,43.392 C308.64,38.144 309.824,34.272 312.192,31.776 C314.368,29.472 317.6,28.32 321.888,28.32 L321.888,28.32 L327.648,28.32 C336.544,28.32 340.992,33.344 340.992,43.392 C340.992,53.44 336.544,58.464 327.648,58.464 L327.648,58.464 Z" id="T2Pro" fill-rule="nonzero"></path>
                <g id="编组" transform="translate(386.832000, 0.392000)">
                    <path d="M76.6295197,24.0500493 C75.7185597,25.41775 74.5255127,28.0346891 75.1957929,31.7581735 C76.1973313,37.3285923 80.8427097,41.6040031 86.9839258,43.9894023 C87.1573187,44.0540181 87.2763646,43.8063243 87.1210873,43.7013236 C84.5434846,42.0051594 83.1356374,39.2589887 83.1356374,35.0724246 C83.1356374,27.0196829 89.0439376,24.5642833 101.137449,24.5642833 C107.201026,24.5642833 112.558092,25.1673639 116.313214,25.7381366 C118.784711,26.1123697 121,24.1065881 121,21.497726 L121,18.1107822 C118.424985,17.370393 111.91628,16 101.137449,16 C89.0931087,16 80.8013024,18.3530913 76.6295197,24.0500493" id="Fill-1"></path>
                    <path d="M99.0317058,44.8780544 C107.634538,44.8780544 112.437962,44.0742278 114.393152,43.3743661 L114.393152,38.5869064 L107.227647,38.5869064 C104.852357,38.5869064 102.9368,36.735823 102.9368,34.456201 L102.9368,31 L120.56785,31 C122.464912,31 124,32.478331 124,34.3065929 L124,34.4967727 L124,38.5869064 L124,51.3365606 C124,52.5207469 123.106954,53 122.324878,53 C121.656415,53 121.098922,52.7337483 120.427817,52.4598893 L115.344325,50.099124 C112.60706,51.0652374 108.416614,53 98.194145,53 C82.1034665,53 74,47.461964 74,34.5525588 C74,34.0251268 74.0237793,33.5154449 74.0607694,33.0108345 C74.8005707,35.2524205 76.1982668,37.6892577 79.0015853,39.8497003 C83.4853097,43.3033656 90.3601776,44.8780544 99.0317058,44.8780544" id="Fill-3"></path>
                    <path d="M45.3295455,29.1148203 C41.5316051,29.1148203 36.034446,29.5055638 32.8597301,29.7284712 L33.8238636,23.8699412 L60.6012074,23.8699412 C63.2485795,23.8699412 65.3925781,21.7588773 65.3925781,19.1547948 L65.3925781,16 L28.1695668,16 C27.0163352,16 26.0308949,16.8208236 25.8364702,17.9406053 L23.567294,31.1262315 C22.9414062,34.4173932 24.1319247,36.8169254 28.0417259,36.6490892 C35.4085582,36.4261819 38.6418679,36.3711106 44.1949574,36.3711106 C54.2863991,36.3711106 57.5703125,36.7592317 57.5703125,40.6666667 C57.5703125,44.4036431 54.4541903,45.07761 44.0830966,45.07761 C36.7136009,45.07761 27.7567472,43.734921 23,42.6780778 L23,46.6510738 C23,49.0427387 24.7285156,51.0934864 27.1148793,51.5156992 C31.1818182,52.2394925 37.2089844,53 44.1949574,53 C60.0658736,53 68,49.485931 68,40.6666667 C68,29.7284712 57.2879972,29.1148203 45.3295455,29.1148203" id="Fill-5"></path>
                    <path d="M115.382888,0 L33.5257181,0 C17.3830287,0 0,10.6536044 0,34.0458981 C0,47.5110888 5.79956538,55.465885 10.6643066,59.7671925 C16.67016,65.0756354 24.7911183,68 33.5257181,68 L115.382888,68 C131.575191,68 149,57.3752459 149,34.0458981 C149,20.5439889 143.187378,12.565588 138.309581,8.25641223 C132.290671,2.93223281 124.146212,0 115.382888,0 M115.382888,6.1555907 C129.065789,6.1555907 142.871418,14.7791877 142.871418,34.0458981 C142.871418,53.2496625 129.065789,61.8444093 115.382888,61.8444093 L33.5257181,61.8444093 C19.8924309,61.8444093 6.13119293,53.2496625 6.13119293,34.0458981 C6.13119293,14.7791877 19.8924309,6.1555907 33.5257181,6.1555907 L115.382888,6.1555907" id="Fill-7"></path>
                </g>
            </g>
        </g>
    </g>
</svg>